<?xml version="1.0" encoding="utf-8"?>
<!-- Generator: Adobe Illustrator 27.1.1, SVG Export Plug-In . SVG Version: 6.00 Build 0)  -->
<svg version="1.1" id="Слой_1" xmlns="http://www.w3.org/2000/svg" xmlns:xlink="http://www.w3.org/1999/xlink" x="0px" y="0px"
	 viewBox="0 0 333 310.5" style="enable-background:new 0 0 333 310.5;" xml:space="preserve">
<style type="text/css">
	.st0{fill:none;stroke:#3C3C3B;stroke-miterlimit:10;}
	.st1{fill:#1D1D1B;stroke:#1D1D1B;stroke-width:2;stroke-miterlimit:10;}
	.st2{fill:#683C11;stroke:#1D1D1B;stroke-width:18;stroke-miterlimit:10;}
	.st3{fill:none;stroke:#1D1D1B;stroke-width:18;stroke-miterlimit:10;}
	.st4{fill:#1D1D1B;stroke:#1D1D1B;stroke-miterlimit:10;}
	.st5{fill:#3C3C3B;stroke:#1D1D1B;stroke-width:18;stroke-miterlimit:10;}
	.st6{fill:none;stroke:#1D1D1B;stroke-width:4;stroke-miterlimit:10;}
	.st7{fill:none;stroke:#1D1D1B;stroke-width:7;stroke-miterlimit:10;}
	.st8{fill:#FFFFFF;stroke:#1D1D1B;stroke-width:2;stroke-miterlimit:10;}
	.st9{fill:none;stroke:#1D1D1B;stroke-width:6;stroke-miterlimit:10;}
	.st10{fill:#3C3C3B;stroke:#3C3C3B;stroke-width:18;stroke-miterlimit:10;}
	.st11{fill:none;stroke:#1D1D1B;stroke-width:28;stroke-miterlimit:10;}
	.st12{fill:#1D1D1B;stroke:#FFFFFF;stroke-width:2;stroke-miterlimit:10;}
	.st13{fill:#683C11;stroke:#FFFFFF;stroke-width:18;stroke-miterlimit:10;}
	.st14{fill:none;stroke:#FFFFFF;stroke-width:18;stroke-miterlimit:10;}
	.st15{fill:#FFFFFF;}
	.st16{fill:#3C3C3B;stroke:#FFFFFF;stroke-width:18;stroke-miterlimit:10;}
	.st17{fill:none;stroke:#FFFFFF;stroke-width:4;stroke-miterlimit:10;}
	.st18{fill:none;stroke:#FFFFFF;stroke-width:7;stroke-miterlimit:10;}
	.st19{fill:#FFFFFF;stroke:#FFFFFF;stroke-width:2;stroke-miterlimit:10;}
	.st20{fill:none;stroke:#FFFFFF;stroke-width:6;stroke-miterlimit:10;}
	.st21{fill:none;stroke:#FFFFFF;stroke-width:28;stroke-miterlimit:10;}
	.st22{fill:none;stroke:#E8E8E8;stroke-width:8;stroke-miterlimit:10;}
	.st23{fill:#E8E8E8;}
	.st24{fill:#3C3C3B;stroke:#E8E8E8;stroke-width:10;stroke-miterlimit:10;}
	.st25{fill:#1D1D1B;stroke:#E8E8E8;stroke-width:2;stroke-miterlimit:10;}
	.st26{fill:none;stroke:#E8E8E8;stroke-width:2;stroke-miterlimit:10;}
	.st27{fill:#FFFFFF;stroke:#E8E8E8;stroke-width:2;stroke-miterlimit:10;}
	.st28{fill:#FFFFFF;stroke:#E8E8E8;stroke-miterlimit:10;}
	.st29{fill:none;stroke:#E8E8E8;stroke-width:18;stroke-miterlimit:10;}
	.st30{fill:none;stroke:#EAEAEA;stroke-width:12;stroke-miterlimit:10;}
	.st31{fill:none;stroke:#1D1D1B;stroke-width:17;stroke-miterlimit:10;}
	.st32{fill:none;stroke:#E8E8E8;stroke-width:10;stroke-miterlimit:10;}
</style>
<rect x="-76.5" y="-72" class="st0" width="490.5" height="490.5"/>
<g>
	<path class="st1" d="M690.6,226.3L664,201.4c2,0.7,5.1,1.5,8.8,1.4c5.2-0.1,7.3-1.4,11.9-1.7c5.4-0.3,7.5,1.4,12.6,2.3
		c4.5,0.8,11.1,1.1,20-2C708.4,209.7,699.5,218,690.6,226.3z"/>
	<path class="st2" d="M686.4,94"/>
	<polyline class="st3" points="798,192.6 690.5,119.3 583.3,188.4 	"/>
	<polyline class="st4" points="592.1,131 627.7,107.8 633.6,49.8 580.3,55.6 	"/>
	<path class="st5" d="M762.2,303.7l13-124.7L762.2,303.7z"/>
	<line class="st5" x1="770.7" y1="296.5" x2="664" y2="296.5"/>
	<polygon class="st6" points="693.4,232.7 733,193.4 648.2,193.4 687.9,232.7 687.9,279.3 673.7,286.4 707.6,286.4 693.4,279.3 	"/>
	<path class="st7" d="M690.6,283.6"/>
	<path class="st8" d="M669.6,204.8l16.7,14.1c0.8,0.7,2-0.3,1.5-1.2l-11.5-14.4L669.6,204.8z"/>
	<polyline class="st9" points="697,203.9 714.8,174.4 744.1,169.8 	"/>
	<rect x="567.3" y="44.5" transform="matrix(0.9942 -0.1075 0.1075 0.9942 -1.2791 65.2)" class="st10" width="73.8" height="0"/>
	<polyline class="st11" points="823.9,177.7 690.5,86.8 553.7,174.9 	"/>
	<path class="st1" d="M691,235.6l-31.2-29.2c2.3,0.8,5.9,1.7,10.3,1.6c6.1-0.1,8.5-1.7,13.9-2c6.4-0.4,8.8,1.6,14.7,2.7
		c5.2,1,13,1.3,23.4-2.4C711.8,216.1,701.4,225.9,691,235.6z"/>
	<path class="st2" d="M686,80.7"/>
	<polyline class="st3" points="816.7,196 690.7,110.3 565.2,191.1 	"/>
	<polyline class="st4" points="575.6,123.9 617.2,96.8 624.1,28.9 561.7,35.6 	"/>
	<path class="st5" d="M774.8,326.2l15.2-146L774.8,326.2z"/>
	<line class="st5" x1="784.7" y1="317.8" x2="659.8" y2="317.8"/>
	<polygon class="st6" points="694.2,243.1 740.6,197.1 641.3,197.1 687.7,243.1 687.7,297.6 671.1,305.9 710.8,305.9 694.2,297.6 	
		"/>
	<path class="st7" d="M691,302.6"/>
	<path class="st8" d="M666.4,210.4l19.5,16.5c1,0.8,2.4-0.4,1.7-1.5l-13.4-16.8L666.4,210.4z"/>
	<polyline class="st9" points="698.4,209.4 719.2,174.8 753.5,169.4 	"/>
	<rect x="546.6" y="22.6" transform="matrix(0.9942 -0.1075 0.1075 0.9942 0.9827 63.5194)" class="st10" width="86.4" height="0"/>
	<polyline class="st11" points="847,178.7 690.7,72.3 530.6,175.4 	"/>
</g>
<g>
	<path class="st12" d="M690.8,230l-28.5-26.6c2.1,0.7,5.4,1.6,9.4,1.5c5.5-0.1,7.8-1.5,12.7-1.8c5.8-0.3,8,1.4,13.4,2.5
		c4.8,0.9,11.9,1.2,21.4-2.2C709.7,212.3,700.3,221.2,690.8,230z"/>
	<path class="st13" d="M686.3,88.7"/>
	<polyline class="st14" points="805.5,193.9 690.6,115.7 576,189.5 	"/>
	<polyline class="st15" points="585.5,128.2 623.5,103.4 629.8,41.4 572.9,47.6 	"/>
	<path class="st16" d="M767.3,312.7l13.9-133.2L767.3,312.7z"/>
	<line class="st16" x1="776.3" y1="305" x2="662.3" y2="305"/>
	<polygon class="st17" points="693.7,236.9 736.1,194.9 645.5,194.9 687.8,236.9 687.8,286.6 672.6,294.2 708.9,294.2 693.7,286.6 	
		"/>
	<path class="st18" d="M690.8,291.2"/>
	<path class="st19" d="M668.3,207.1l17.8,15.1c0.9,0.7,2.2-0.3,1.6-1.3l-12.2-15.4L668.3,207.1z"/>
	<polyline class="st20" points="697.5,206.1 716.6,174.6 747.9,169.7 	"/>
	<rect x="559" y="35.7" transform="matrix(0.9942 -0.1075 0.1075 0.9942 -0.3744 64.5278)" class="st16" width="78.8" height="0"/>
	<polyline class="st21" points="833.1,178.1 690.6,81 544.5,175.1 	"/>
</g>
<g>
	<path class="st2" d="M166.5,72.9"/>
	<path class="st5" d="M247.4,295.9L261,162.9L247.4,295.9z"/>
	<polyline class="st3" points="285.7,178.2 170.8,99.9 56.2,173.7 	"/>
	<polyline class="st22" points="283.5,176.4 170.8,99.9 58.5,171.9 	"/>
	<polyline class="st4" points="65.7,112.4 103.7,87.6 110,25.7 53.1,31.9 	"/>
	<polyline class="st23" points="69.8,101.1 97.9,82.8 102.6,36.9 60.5,41.5 	"/>
	<line class="st5" x1="256.5" y1="289.3" x2="142.5" y2="289.3"/>
	<line class="st24" x1="261" y1="162.9" x2="247.5" y2="293.4"/>
	<path class="st24" d="M247.5,297"/>
	<line class="st24" x1="252" y1="288.9" x2="148.5" y2="288.9"/>
	<g>
		<path class="st1" d="M171,214.3l-28.5-26.6c2.1,0.7,5.4,1.6,9.4,1.5c5.5-0.1,7.8-1.5,12.7-1.8c5.8-0.3,8,1.4,13.4,2.5
			c4.8,0.9,11.9,1.2,21.4-2.2C189.9,196.5,180.5,205.4,171,214.3z"/>
		<polygon class="st6" points="173.9,221.1 216.3,179.1 125.7,179.1 168,221.1 168,270.9 152.8,278.5 189.1,278.5 173.9,270.9 		"/>
		<path class="st7" d="M171,275.4"/>
		<path class="st8" d="M148.5,191.3l17.8,15.1c0.9,0.7,2.2-0.3,1.6-1.3l-12.2-15.4L148.5,191.3z"/>
		<polyline class="st9" points="177.7,190.4 196.8,158.8 228.1,153.9 		"/>
		<path class="st1" d="M171,214.3l-28.5-26.6c2.1,0.7,5.4,1.6,9.4,1.5c5.5-0.1,7.8-1.5,12.7-1.8c5.8-0.3,8,1.4,13.4,2.5
			c4.8,0.9,11.9,1.2,21.4-2.2C189.9,196.5,180.5,205.4,171,214.3z"/>
		<polyline class="st6" points="189.1,278.5 173.9,270.9 173.9,221.1 216.3,179.1 		"/>
		<polyline class="st6" points="216.3,179.1 125.7,179.1 168,221.1 168,270.9 152.8,278.5 		"/>
		<path class="st8" d="M148.5,191.3l17.8,15.1c0.9,0.7,2.2-0.3,1.6-1.3l-12.2-15.4L148.5,191.3z"/>
		<polyline class="st9" points="177.7,190.4 196.8,158.8 228.1,153.9 		"/>
		<path class="st1" d="M171,214.3l-28.5-26.6c2.1,0.7,5.4,1.6,9.4,1.5c5.5-0.1,7.8-1.5,12.7-1.8c5.8-0.3,8,1.4,13.4,2.5
			c4.8,0.9,11.9,1.2,21.4-2.2C189.9,196.5,180.5,205.4,171,214.3z"/>
		<polyline class="st6" points="125.7,179.1 168,221.1 168,270.9 152.8,278.5 189.1,278.5 173.9,270.9 173.9,221.1 216.3,179.1 
			125.7,179.1 		"/>
		<path class="st7" d="M171,275.4"/>
		<path class="st8" d="M148.5,191.3l17.8,15.1c0.9,0.7,2.2-0.3,1.6-1.3l-12.2-15.4L148.5,191.3z"/>
		<polyline class="st9" points="177.7,190.4 196.8,158.8 228.1,153.9 		"/>
		<path class="st1" d="M171,214.3l-28.5-26.6c2.1,0.7,5.4,1.6,9.4,1.5c5.5-0.1,7.8-1.5,12.7-1.8c5.8-0.3,8,1.4,13.4,2.5
			c4.8,0.9,11.9,1.2,21.4-2.2C189.9,196.5,180.5,205.4,171,214.3z"/>
		<polyline class="st6" points="189.1,278.5 173.9,270.9 173.9,221.1 216.3,179.1 		"/>
		<polyline class="st6" points="125.7,179.1 168,221.1 168,270.9 152.8,278.5 		"/>
		<line class="st6" x1="216.3" y1="179.1" x2="125.7" y2="179.1"/>
		<path class="st8" d="M148.5,191.3l17.8,15.1c0.9,0.7,2.2-0.3,1.6-1.3l-12.2-15.4L148.5,191.3z"/>
		<polyline class="st9" points="177.7,190.4 196.8,158.8 228.1,153.9 		"/>
	</g>
	<path class="st25" d="M171,214.3l-28.5-26.6c2.1,0.7,5.4,1.6,9.4,1.5c5.5-0.1,7.8-1.5,12.7-1.8c5.8-0.3,8,1.4,13.4,2.5
		c4.8,0.9,11.9,1.2,21.4-2.2C189.9,196.5,180.5,205.4,171,214.3z"/>
	<polygon class="st26" points="173.9,221.1 216.3,179.1 125.7,179.1 168,221.1 168,270.9 152.8,278.5 189.1,278.5 173.9,270.9 	"/>
	<path class="st26" d="M171,275.4"/>
	<path class="st27" d="M148.5,191.3l17.8,15.1c0.9,0.7,2.2-0.3,1.6-1.3l-12.2-15.4L148.5,191.3z"/>
	<polyline class="st26" points="177.7,190.4 196.8,158.8 228.1,153.9 	"/>
	<path class="st25" d="M171,214.3l-28.5-26.6c2.1,0.7,5.4,1.6,9.4,1.5c5.5-0.1,7.8-1.5,12.7-1.8c5.8-0.3,8,1.4,13.4,2.5
		c4.8,0.9,11.9,1.2,21.4-2.2C189.9,196.5,180.5,205.4,171,214.3z"/>
	<polyline class="st26" points="189.1,278.5 173.9,270.9 173.9,221.1 216.3,179.1 	"/>
	<polyline class="st26" points="216.3,179.1 125.7,179.1 168,221.1 168,270.9 152.8,278.5 	"/>
	<path class="st27" d="M148.5,191.3l17.8,15.1c0.9,0.7,2.2-0.3,1.6-1.3l-12.2-15.4L148.5,191.3z"/>
	<polyline class="st26" points="177.7,190.4 196.8,158.8 228.1,153.9 	"/>
	<path class="st25" d="M171,214.3l-28.5-26.6c2.1,0.7,5.4,1.6,9.4,1.5c5.5-0.1,7.8-1.5,12.7-1.8c5.8-0.3,8,1.4,13.4,2.5
		c4.8,0.9,11.9,1.2,21.4-2.2C189.9,196.5,180.5,205.4,171,214.3z"/>
	<polyline class="st26" points="125.7,179.1 168,221.1 168,270.9 152.8,278.5 189.1,278.5 173.9,270.9 173.9,221.1 216.3,179.1 
		125.7,179.1 	"/>
	<path class="st26" d="M171,275.4"/>
	<path class="st27" d="M148.5,191.3l17.8,15.1c0.9,0.7,2.2-0.3,1.6-1.3l-12.2-15.4L148.5,191.3z"/>
	<polyline class="st26" points="177.7,190.4 196.8,158.8 228.1,153.9 	"/>
	<path class="st25" d="M171,214.3l-28.5-26.6c2.1,0.7,5.4,1.6,9.4,1.5c5.5-0.1,7.8-1.5,12.7-1.8c5.8-0.3,8,1.4,13.4,2.5
		c4.8,0.9,11.9,1.2,21.4-2.2C189.9,196.5,180.5,205.4,171,214.3z"/>
	<polyline class="st26" points="189.1,278.5 173.9,270.9 173.9,221.1 216.3,179.1 	"/>
	<polyline class="st26" points="125.7,179.1 168,221.1 168,270.9 152.8,278.5 	"/>
	<line class="st26" x1="216.3" y1="179.1" x2="125.7" y2="179.1"/>
	<path class="st28" d="M151.4,192.6l17.8,15.1c0.9,0.7,2.2-0.3,1.6-1.3L158.6,191L151.4,192.6z"/>
	<polyline class="st26" points="177.7,190.4 196.8,158.8 228.1,153.9 	"/>
	<line class="st10" x1="117.8" y1="15.8" x2="117.8" y2="15.8"/>
	<line class="st10" x1="39.4" y1="24.2" x2="39.4" y2="24.2"/>
	<polyline class="st11" points="313.3,162.3 170.8,65.3 24.7,159.4 	"/>
	<polyline class="st29" points="306,158.4 170.8,65.3 31.4,153.9 	"/>
	<path class="st30" d="M107.7,15.1"/>
	<path class="st30" d="M54.2,22.8"/>
	<line class="st31" x1="38.1" y1="27.4" x2="120.2" y2="18.4"/>
	<line class="st32" x1="44.9" y1="27.5" x2="112.5" y2="18.9"/>
</g>
</svg>
